<svg width="107" height="107" viewBox="0 0 107 107" fill="none" xmlns="http://www.w3.org/2000/svg">
<path d="M11.1458 14.3459C11.1458 13.2258 11.1458 12.6657 11.3638 12.2379C11.5556 11.8616 11.8615 11.5556 12.2379 11.3639C12.6657 11.1459 13.2257 11.1459 14.3458 11.1459H92.6542C93.7743 11.1459 94.3343 11.1459 94.7622 11.3639C95.1385 11.5556 95.4444 11.8616 95.6362 12.2379C95.8542 12.6657 95.8542 13.2258 95.8542 14.3459V92.6542C95.8542 93.7743 95.8542 94.3344 95.6362 94.7622C95.4444 95.1385 95.1385 95.4445 94.7622 95.6362C94.3343 95.8542 93.7743 95.8542 92.6542 95.8542H14.3458C13.2257 95.8542 12.6657 95.8542 12.2379 95.6362C11.8615 95.4445 11.5556 95.1385 11.3638 94.7622C11.1458 94.3344 11.1458 93.7743 11.1458 92.6542V14.3459Z" stroke="white" stroke-width="5" stroke-linecap="round"/>
<path d="M55.7292 67.0062C55.7292 78.0943 43.0629 85.3814 40.5539 86.716C40.2817 86.8608 39.9683 86.8608 39.6961 86.716C37.1871 85.3814 24.5208 78.0943 24.5208 67.0062C24.5208 57.565 32.0816 51.2709 40.125 51.2709C48.4472 51.2709 55.7292 57.565 55.7292 67.0062Z" stroke="white" stroke-width="5"/>
<path d="M82.4792 95.8541L55.7292 28.9791" stroke="white" stroke-width="5"/>
<path d="M95.8542 20.0625L11.1458 37.8958" stroke="white" stroke-width="5"/>
<circle cx="40.125" cy="66.875" r="4.45833" fill="white"/>
</svg>
