<svg width="107" height="107" viewBox="0 0 107 107" fill="none" xmlns="http://www.w3.org/2000/svg">
<path d="M53.8966 80.0647L52.8192 77.8088H52.8192L53.8966 80.0647ZM53.1034 80.0647L54.1808 77.8088H54.1808L53.1034 80.0647ZM82.2083 40.125C82.2083 51.3422 75.9643 60.2784 68.9612 66.7667C61.9745 73.2398 54.5255 76.9938 52.8192 77.8088L54.974 82.3206C56.8884 81.4063 64.8453 77.3961 72.3593 70.4345C79.8568 63.4881 87.2083 53.319 87.2083 40.125H82.2083ZM53.5 11.4166C69.3552 11.4166 82.2083 24.2698 82.2083 40.125H87.2083C87.2083 21.5084 72.1166 6.41663 53.5 6.41663V11.4166ZM24.7917 40.125C24.7917 24.2698 37.6448 11.4166 53.5 11.4166V6.41663C34.8834 6.41663 19.7917 21.5084 19.7917 40.125H24.7917ZM54.1808 77.8088C52.4745 76.9938 45.0255 73.2398 38.0388 66.7667C31.0357 60.2784 24.7917 51.3422 24.7917 40.125H19.7917C19.7917 53.319 27.1431 63.4881 34.6407 70.4345C42.1547 77.3961 50.1116 81.4063 52.026 82.3206L54.1808 77.8088ZM52.8192 77.8088C53.2436 77.6061 53.7564 77.6061 54.1808 77.8088L52.026 82.3206C52.9644 82.7688 54.0356 82.7688 54.974 82.3206L52.8192 77.8088ZM64.375 40.125C64.375 46.1311 59.5061 51 53.5 51V56C62.2675 56 69.375 48.8925 69.375 40.125H64.375ZM53.5 29.25C59.5061 29.25 64.375 34.1189 64.375 40.125H69.375C69.375 31.3574 62.2675 24.25 53.5 24.25V29.25ZM42.625 40.125C42.625 34.1189 47.4939 29.25 53.5 29.25V24.25C44.7325 24.25 37.625 31.3574 37.625 40.125H42.625ZM53.5 51C47.4939 51 42.625 46.1311 42.625 40.125H37.625C37.625 48.8925 44.7325 56 53.5 56V51Z" fill="white"/>
<path d="M88.2493 78.0209C91.771 80.0541 93.625 82.3606 93.625 84.7084C93.625 87.0562 91.771 89.3626 88.2493 91.3959C84.7276 93.4291 79.6623 95.1176 73.5625 96.2915C67.4627 97.4654 60.5434 98.0834 53.5 98.0834C46.4566 98.0834 39.5373 97.4654 33.4375 96.2915C27.3377 95.1176 22.2724 93.4291 18.7507 91.3959C15.229 89.3626 13.375 87.0562 13.375 84.7084C13.375 82.3606 15.229 80.0541 18.7507 78.0209" stroke="white" stroke-width="5" stroke-linecap="round"/>
</svg>
