<svg width="107" height="107" viewBox="0 0 107 107" fill="none" xmlns="http://www.w3.org/2000/svg">
<path d="M64.6458 93.625V67.875C64.6458 67.3227 64.1981 66.875 63.6458 66.875H43.3542C42.8019 66.875 42.3542 67.3227 42.3542 67.875V93.625" stroke="white" stroke-width="5" stroke-linecap="round" stroke-linejoin="round"/>
<path d="M22.2917 49.0416V89.625C22.2917 91.5106 22.2917 92.4534 22.8774 93.0392C23.4632 93.625 24.406 93.625 26.2917 93.625H80.7083C82.5939 93.625 83.5367 93.625 84.1225 93.0392C84.7083 92.4534 84.7083 91.5106 84.7083 89.625V49.0416" stroke="white" stroke-width="5"/>
<path d="M21.9129 14.8899C22.0948 14.1624 22.1858 13.7986 22.457 13.5868C22.7283 13.375 23.1033 13.375 23.8532 13.375H83.1468C83.8967 13.375 84.2717 13.375 84.543 13.5868C84.8142 13.7986 84.9052 14.1624 85.0871 14.8899L93.0037 46.5566C93.2897 47.7005 93.4327 48.2725 93.1324 48.6571C92.8322 49.0417 92.2426 49.0417 91.0635 49.0417H79.1802C77.5618 49.0417 76.7527 49.0417 76.1932 48.5677C75.6337 48.0937 75.5007 47.2956 75.2346 45.6993L73.7598 36.8503C73.6847 36.4001 73.6472 36.1749 73.5625 36.1749C73.4778 36.1749 73.4403 36.4001 73.3652 36.8503L71.8904 45.6993C71.6243 47.2956 71.4913 48.0937 70.9318 48.5677C70.3723 49.0417 69.5632 49.0417 67.9448 49.0417H59.1177C57.4993 49.0417 56.6902 49.0417 56.1307 48.5677C55.5712 48.0937 55.4382 47.2956 55.1721 45.6993L53.6973 36.8503C53.6222 36.4001 53.5847 36.1749 53.5 36.1749C53.4153 36.1749 53.3778 36.4001 53.3027 36.8503L51.8279 45.6993C51.5618 47.2956 51.4288 48.0937 50.8693 48.5677C50.3098 49.0417 49.5007 49.0417 47.8823 49.0417H39.0552C37.4368 49.0417 36.6277 49.0417 36.0682 48.5677C35.5087 48.0937 35.3757 47.2956 35.1096 45.6993L33.6348 36.8503C33.5597 36.4001 33.5222 36.1749 33.4375 36.1749C33.3528 36.1749 33.3153 36.4001 33.2402 36.8503L31.7654 45.6993C31.4993 47.2956 31.3663 48.0937 30.8068 48.5677C30.2473 49.0417 29.4382 49.0417 27.8198 49.0417H15.9366C14.7574 49.0417 14.1678 49.0417 13.8676 48.6571C13.5673 48.2725 13.7103 47.7005 13.9963 46.5566L21.9129 14.8899Z" stroke="white" stroke-width="5"/>
</svg>
